<svg width="40" height="40" viewBox="0 0 40 40" fill="none" xmlns="http://www.w3.org/2000/svg">
<rect width="40" height="40" rx="20" fill="#030308"/>
<path d="M25.5781 19.6219L19.675 14.4984C19.6297 14.4594 19.5719 14.4375 19.5109 14.4375H18.1281C18.0125 14.4375 17.9594 14.5812 18.0469 14.6562L23.5188 19.4062H14.375C14.3062 19.4062 14.25 19.4625 14.25 19.5312V20.4688C14.25 20.5375 14.3062 20.5938 14.375 20.5938H23.5172L18.0453 25.3438C17.9578 25.4203 18.0109 25.5625 18.1266 25.5625H19.5563C19.5859 25.5625 19.6156 25.5516 19.6375 25.5312L25.5781 20.3781C25.6322 20.3311 25.6756 20.273 25.7053 20.2078C25.735 20.1425 25.7504 20.0717 25.7504 20C25.7504 19.9283 25.735 19.8575 25.7053 19.7922C25.6756 19.727 25.6322 19.6689 25.5781 19.6219Z" fill="white"/>
</svg>
