<svg width="25" height="25" viewBox="0 0 25 25" fill="none" xmlns="http://www.w3.org/2000/svg">
<g clip-path="url(#clip0_274_157)">
<path d="M23.9299 0.954565C23.4664 0.653961 22.9024 0.549762 22.3621 0.664885C21.8218 0.780007 21.3493 1.10502 21.0486 1.56845L9.375 19.5622L3.68195 14.2983C3.48109 14.1126 3.24562 13.9683 2.98898 13.8735C2.73234 13.7788 2.45955 13.7356 2.1862 13.7463C1.63414 13.7679 1.11328 14.0079 0.738199 14.4136C0.36312 14.8192 0.164549 15.3573 0.186167 15.9093C0.207786 16.4614 0.447825 16.9823 0.853477 17.3573L8.32848 24.2685C8.32848 24.2685 8.54306 24.4532 8.64237 24.5178C8.8719 24.6667 9.12852 24.769 9.39758 24.8188C9.66665 24.8685 9.94288 24.8648 10.2105 24.8078C10.4781 24.7508 10.7319 24.6416 10.9573 24.4865C11.1827 24.3314 11.3754 24.1334 11.5243 23.9039L24.5438 3.83581C24.8444 3.37231 24.9486 2.80839 24.8334 2.26807C24.7183 1.72775 24.3933 1.25528 23.9299 0.954565Z" fill="#F8BD00"/>
</g>
<defs>
<clipPath id="clip0_274_157">
<rect width="25" height="25" fill="white"/>
</clipPath>
</defs>
</svg>
