<svg width="21" height="21" viewBox="0 0 21 21" fill="none" xmlns="http://www.w3.org/2000/svg">
<path d="M6.12516 0.0820312H14.8752C18.2085 0.0820312 20.9168 2.79036 20.9168 6.1237V14.8737C20.9168 16.476 20.2803 18.0128 19.1473 19.1458C18.0142 20.2788 16.4775 20.9154 14.8752 20.9154H6.12516C2.79183 20.9154 0.0834961 18.207 0.0834961 14.8737V6.1237C0.0834961 4.52135 0.720027 2.98463 1.85306 1.85159C2.98609 0.718562 4.52281 0.0820313 6.12516 0.0820312ZM5.91683 2.16536C4.92227 2.16536 3.96844 2.56045 3.26518 3.26371C2.56192 3.96698 2.16683 4.9208 2.16683 5.91536V15.082C2.16683 17.1549 3.84391 18.832 5.91683 18.832H15.0835C16.0781 18.832 17.0319 18.4369 17.7351 17.7337C18.4384 17.0304 18.8335 16.0766 18.8335 15.082V5.91536C18.8335 3.84245 17.1564 2.16536 15.0835 2.16536H5.91683ZM15.9689 3.72786C16.3142 3.72786 16.6454 3.86505 16.8896 4.10924C17.1338 4.35342 17.271 4.68461 17.271 5.02995C17.271 5.37528 17.1338 5.70647 16.8896 5.95066C16.6454 6.19485 16.3142 6.33203 15.9689 6.33203C15.6236 6.33203 15.2924 6.19485 15.0482 5.95066C14.804 5.70647 14.6668 5.37528 14.6668 5.02995C14.6668 4.68461 14.804 4.35342 15.0482 4.10924C15.2924 3.86505 15.6236 3.72786 15.9689 3.72786ZM10.5002 5.29037C11.8815 5.29037 13.2063 5.8391 14.183 6.81585C15.1598 7.7926 15.7085 9.11736 15.7085 10.4987C15.7085 11.88 15.1598 13.2048 14.183 14.1815C13.2063 15.1583 11.8815 15.707 10.5002 15.707C9.11883 15.707 7.79407 15.1583 6.81732 14.1815C5.84056 13.2048 5.29183 11.88 5.29183 10.4987C5.29183 9.11736 5.84056 7.7926 6.81732 6.81585C7.79407 5.8391 9.11883 5.29037 10.5002 5.29037ZM10.5002 7.3737C9.67136 7.3737 8.87651 7.70294 8.29045 8.28899C7.7044 8.87504 7.37516 9.6699 7.37516 10.4987C7.37516 11.3275 7.7044 12.1224 8.29045 12.7084C8.87651 13.2945 9.67136 13.6237 10.5002 13.6237C11.329 13.6237 12.1238 13.2945 12.7099 12.7084C13.2959 12.1224 13.6252 11.3275 13.6252 10.4987C13.6252 9.6699 13.2959 8.87504 12.7099 8.28899C12.1238 7.70294 11.329 7.3737 10.5002 7.3737Z" fill="#F8F8F8"/>
</svg>
