<svg width="1440" height="733" viewBox="0 0 1440 733" fill="none" xmlns="http://www.w3.org/2000/svg">
<path d="M715.5 556.763C438.602 674.018 -23.5 733 -23.5 733L-100 689.816L-80.5 -46.0625L1472 -98L1450 473.312C1450 473.312 1105.5 391.613 715.5 556.763Z" fill="#DAD2FF" fill-opacity="0.51"/>
<path d="M715.5 520.763C438.602 638.018 -23.5 697 -23.5 697L-100 653.816L-80.5 -82.0625L1472 -134L1450 437.312C1450 437.312 1105.5 355.613 715.5 520.763Z" fill="#DAD2FF" fill-opacity="0.51"/>
<path d="M706.5 490.763C429.602 608.018 -32.5 667 -32.5 667L-109 623.816L-89.5 -112.062L1463 -164L1441 407.312C1441 407.312 1096.5 325.613 706.5 490.763Z" fill="#DAD2FF"/>
</svg>
