<svg width="60" height="60" viewBox="0 0 60 60" fill="none" xmlns="http://www.w3.org/2000/svg">
<rect x="1" y="1" width="58" height="58" rx="9" stroke="#F8BD00" stroke-opacity="0.36" stroke-width="2"/>
<path d="M22 22.9257C22.0003 21.6681 22.3202 20.4286 22.933 19.3096C23.5459 18.1907 24.4343 17.2243 25.5247 16.4903C26.6152 15.7563 27.8765 15.2758 29.2044 15.0885C30.5323 14.9011 31.8887 15.0123 33.1617 15.4128C34.4347 15.8134 35.5876 16.4918 36.5253 17.392C37.463 18.2922 38.1586 19.3885 38.5546 20.5901C38.9506 21.7918 39.0356 23.0645 38.8026 24.303C38.5696 25.5415 38.0254 26.7104 37.2148 27.713L36.9456 27.9878C36.8141 28.1205 36.3587 28.5299 36.211 28.6455C35.983 28.8257 35.7445 28.994 35.4966 29.1496L32.4265 31.1301C31.6677 31.6201 31.0474 32.2754 30.619 33.0397C30.1907 33.804 29.9671 34.6544 29.9676 35.5176" stroke="#F8BD00" stroke-opacity="0.36" stroke-width="2" stroke-linecap="round" stroke-linejoin="round"/>
<path d="M30.9591 42.5094C30.9591 42.9263 30.5781 43.3743 29.9677 43.3743C29.3573 43.3743 28.9763 42.9263 28.9763 42.5094C28.9763 42.0926 29.3573 41.6445 29.9677 41.6445C30.5781 41.6445 30.9591 42.0926 30.9591 42.5094Z" stroke="#F8BD00" stroke-opacity="0.36" stroke-width="2"/>
</svg>
