<svg width="113" height="29" viewBox="0 0 113 29" fill="none" xmlns="http://www.w3.org/2000/svg">
<rect x="0.5" y="0.5" width="112" height="28" rx="6.5" stroke="#7A7A7A"/>
<path d="M96.9999 7L94.6499 12.76L88.4399 13.22L93.1999 17.24L91.7099 23.28L96.9999 20V7Z" fill="#F8BD00"/>
<path d="M96 7L93.8037 12.6609L88 13.113L92.4486 17.0639L91.0561 23L96 19.7764" stroke="#F8BD00" stroke-width="2" stroke-linecap="round" stroke-linejoin="round"/>
<path d="M19.3096 12.5525L17.8396 7.7125C17.5496 6.7625 16.2096 6.7625 15.9296 7.7125L14.4496 12.5525H9.9996C9.0296 12.5525 8.6296 13.8025 9.4196 14.3625L13.0596 16.9625L11.6296 21.5725C11.3396 22.5025 12.4196 23.2525 13.1896 22.6625L16.8796 19.8625L20.5696 22.6725C21.3396 23.2625 22.4196 22.5125 22.1296 21.5825L20.6996 16.9725L24.3396 14.3725C25.1296 13.8025 24.7296 12.5625 23.7596 12.5625H19.3096V12.5525Z" fill="#F8BD00"/>
<path d="M39.3096 12.5525L37.8396 7.7125C37.5496 6.7625 36.2096 6.7625 35.9296 7.7125L34.4496 12.5525H29.9996C29.0296 12.5525 28.6296 13.8025 29.4196 14.3625L33.0596 16.9625L31.6296 21.5725C31.3396 22.5025 32.4196 23.2525 33.1896 22.6625L36.8796 19.8625L40.5696 22.6725C41.3396 23.2625 42.4196 22.5125 42.1296 21.5825L40.6996 16.9725L44.3396 14.3725C45.1296 13.8025 44.7296 12.5625 43.7596 12.5625H39.3096V12.5525Z" fill="#F8BD00"/>
<path d="M59.3096 12.5525L57.8396 7.7125C57.5496 6.7625 56.2096 6.7625 55.9296 7.7125L54.4496 12.5525H49.9996C49.0296 12.5525 48.6296 13.8025 49.4196 14.3625L53.0596 16.9625L51.6296 21.5725C51.3396 22.5025 52.4196 23.2525 53.1896 22.6625L56.8796 19.8625L60.5696 22.6725C61.3396 23.2625 62.4196 22.5125 62.1296 21.5825L60.6996 16.9725L64.3396 14.3725C65.1296 13.8025 64.7296 12.5625 63.7596 12.5625H59.3096V12.5525Z" fill="#F8BD00"/>
<path d="M79.3096 12.5525L77.8396 7.7125C77.5496 6.7625 76.2096 6.7625 75.9296 7.7125L74.4496 12.5525H69.9996C69.0296 12.5525 68.6296 13.8025 69.4196 14.3625L73.0596 16.9625L71.6296 21.5725C71.3396 22.5025 72.4196 23.2525 73.1896 22.6625L76.8796 19.8625L80.5696 22.6725C81.3396 23.2625 82.4196 22.5125 82.1296 21.5825L80.6996 16.9725L84.3396 14.3725C85.1296 13.8025 84.7296 12.5625 83.7596 12.5625H79.3096V12.5525Z" fill="#F8BD00"/>
</svg>
