<svg width="21" height="21" viewBox="0 0 21 21" fill="none" xmlns="http://www.w3.org/2000/svg">
<path d="M10.5002 0.0820312C4.75016 0.0820312 0.0834961 4.7487 0.0834961 10.4987C0.0834961 16.2487 4.75016 20.9154 10.5002 20.9154C16.2502 20.9154 20.9168 16.2487 20.9168 10.4987C20.9168 4.7487 16.2502 0.0820312 10.5002 0.0820312ZM15.3335 7.16537C15.1772 8.8112 14.5002 12.8112 14.1564 14.6549C14.0106 15.4362 13.7189 15.6966 13.4481 15.7279C12.8439 15.7799 12.3856 15.332 11.8022 14.9466C10.8856 14.3424 10.3647 13.9674 9.47933 13.3841C8.44808 12.707 9.11475 12.332 9.7085 11.7279C9.86475 11.5716 12.5314 9.14453 12.5835 8.92578C12.5907 8.89265 12.5898 8.85825 12.5807 8.82558C12.5716 8.7929 12.5547 8.76294 12.5314 8.73828C12.4689 8.6862 12.3856 8.70703 12.3127 8.71745C12.2189 8.73828 10.7606 9.70703 7.91683 11.6237C7.50016 11.9049 7.12516 12.0508 6.79183 12.0404C6.41683 12.0299 5.7085 11.832 5.17725 11.6549C4.521 11.4466 4.01058 11.332 4.05225 10.9674C4.07308 10.7799 4.3335 10.5924 4.82308 10.3945C7.86475 9.07162 9.88558 8.19662 10.896 7.77995C13.7918 6.57162 14.3856 6.36328 14.7814 6.36328C14.8647 6.36328 15.0627 6.38411 15.1877 6.48828C15.2918 6.57161 15.3231 6.6862 15.3335 6.76953C15.3231 6.83203 15.3439 7.01953 15.3335 7.16537Z" fill="#F8F8F8"/>
</svg>
