<svg width="17" height="19" viewBox="0 0 17 19" fill="none" xmlns="http://www.w3.org/2000/svg">
<path d="M13.2916 3.0625C12.5797 2.24951 12.1873 1.20562 12.1874 0.125H8.96867V13.0417C8.94436 13.7408 8.64942 14.4032 8.14607 14.8891C7.64273 15.3749 6.97033 15.6463 6.27075 15.6458C4.79159 15.6458 3.56242 14.4375 3.56242 12.9375C3.56242 11.1458 5.29159 9.80208 7.07284 10.3542V7.0625C3.47909 6.58333 0.333252 9.375 0.333252 12.9375C0.333252 16.4062 3.20825 18.875 6.26034 18.875C9.53117 18.875 12.1874 16.2188 12.1874 12.9375V6.38542C13.4926 7.32276 15.0597 7.82567 16.6666 7.82292V4.60417C16.6666 4.60417 14.7083 4.69792 13.2916 3.0625Z" fill="#F8F8F8"/>
</svg>
